<?xml version="1.0" standalone="no"?>
<!DOCTYPE svg PUBLIC "-//W3C//DTD SVG 20010904//EN"
 "http://www.w3.org/TR/2001/REC-SVG-20010904/DTD/svg10.dtd">
<svg version="1.0" xmlns="http://www.w3.org/2000/svg"
 width="256.000000pt" height="256.000000pt" viewBox="0 0 256.000000 256.000000"
 preserveAspectRatio="xMidYMid meet">
<metadata>
Created by potrace 1.11, written by Peter Selinger 2001-2013
</metadata>
<g transform="translate(0.000000,256.000000) scale(0.100000,-0.100000)"
fill="#000000" stroke="none">
<path d="M1973 2337 c-113 -42 -202 -81 -215 -95 -20 -19 -23 -33 -23 -100 -1
-146 33 -250 113 -338 47 -53 75 -67 114 -59 16 4 107 36 202 71 94 35 175 64
179 64 4 0 20 11 35 25 23 22 27 33 26 83 0 53 -6 103 -21 177 -13 70 -100
212 -142 235 -35 18 -74 9 -268 -63z m278 -30 c84 -83 121 -275 63 -338 -51
-56 -142 23 -183 159 -29 95 -14 194 31 211 31 11 51 4 89 -32z"/>
<path d="M1383 2011 l-303 -116 0 -297 0 -296 232 -338 c183 -267 229 -339
217 -347 -8 -5 -113 -46 -234 -91 l-220 -83 -2 -176 -1 -175 136 55 c76 30
151 61 167 68 60 28 476 195 486 195 5 0 9 69 9 168 l-1 167 -285 415 c-157
228 -290 423 -295 432 -7 14 -3 19 23 26 18 6 92 31 163 57 72 26 176 63 232
82 l101 36 -35 54 c-45 70 -62 120 -70 205 -3 38 -9 70 -12 72 -3 1 -142 -50
-308 -113z"/>
<path d="M885 1815 c-49 -17 -157 -55 -240 -84 -82 -29 -204 -71 -270 -94
l-120 -42 -1 -157 c-1 -138 1 -156 15 -153 9 2 88 24 176 49 88 25 165 46 170
46 7 0 10 -173 10 -515 l-1 -516 99 -67 c54 -37 104 -71 110 -77 26 -22 136
-95 144 -95 8 0 12 1725 3 1733 -3 2 -45 -10 -95 -28z"/>
<path d="M203 1553 c-22 -4 -23 -7 -23 -138 l0 -133 28 7 27 7 3 132 c1 73 -1
131 -5 131 -4 -1 -18 -4 -30 -6z"/>
</g>
</svg>
